<?xml version="1.0" encoding="UTF-8"?>
<!DOCTYPE svg PUBLIC "-//W3C//DTD SVG 1.1//EN" "http://www.w3.org/Graphics/SVG/1.1/DTD/svg11.dtd">
<!-- Creator: CorelDRAW 2019 (64-Bit) -->
<svg xmlns="http://www.w3.org/2000/svg" xml:space="preserve" width="46.01mm" height="9.823mm" version="1.1" style="shape-rendering:geometricPrecision; text-rendering:geometricPrecision; image-rendering:optimizeQuality; fill-rule:evenodd; clip-rule:evenodd"
viewBox="0 0 4601 982.3"
 xmlns:xlink="http://www.w3.org/1999/xlink"
 xmlns:xodm="http://www.corel.com/coreldraw/odm/2003">
 <defs>
  <style type="text/css">
   <![CDATA[
    .str0 {stroke:#161439;stroke-width:3.53;stroke-miterlimit:22.9256}
    .fil3 {fill:#FEFEFE}
    .fil1 {fill:#161439}
    .fil0 {fill:#5751E1}
    .fil2 {fill:#545D70;fill-rule:nonzero}
   ]]>
  </style>
 </defs>
 <g id="Layer_x0020_1">
  <metadata id="CorelCorpID_0Corel-Layer"/>
  <g id="_2630094282784">
   <circle class="fil0" cx="488.73" cy="491.15" r="491.14"/>
   <g>
    <path class="fil1 str0" d="M3537.14 485.53c6.91,-16.33 53.7,-56.72 75.5,-67.11 34.11,-16.27 92.74,-11.7 95.78,26.91 -45.74,20.08 -110.72,40.44 -171.28,40.2zm-457.83 0.63c-0.52,29.04 7.33,96.72 48.28,95.27 31.67,-1.12 41.8,-62.13 58.29,-88.96 6.67,-10.86 21.67,-33.89 41.01,-28.11 25.53,7.63 52.8,99.92 127.63,10.28l3.3 -3.9c12.45,20.5 15.95,38.09 52.7,29.31 30.03,-7.18 35.97,-23.75 48.1,-38.87 14.13,25.89 10.8,48.75 41.09,58.47 19.58,6.27 69.08,-0.97 92.3,-2.15 57.35,-2.93 125.3,-6.22 171.84,-29.76 81.31,-41.12 8.52,-246.77 4,-329.82l18.44 12.76c-0.52,-18.34 -29.35,-75.58 -37.77,-88.26 -23.14,23.07 -10.16,46.49 -4.23,79.3 8.25,45.57 49.89,260.97 41.28,279.04 -16.37,16.65 -48.82,27.89 -77.9,30.77 8.41,-15.04 30.01,-31.98 20.94,-61.15 -12.84,-41.27 -84.59,-55.27 -142.33,0.51 -7.37,7.12 -15.1,15.2 -23.42,20.82 18.34,-110.12 -19.29,-194.97 -22.71,-283.49 5.14,4.62 7.51,8.15 14.88,10.94 0.67,-18.97 -22.72,-59.64 -29.23,-78.44 -8.39,6.54 -21.53,24.03 -16.4,38.11 10.76,29.53 52.78,292.39 38.96,329.7 -2.84,7.67 -20.22,29.71 -26.74,36.25 -38.41,3.52 -45.35,-42.68 -51.09,-78.32 -5.96,-36.99 -11.35,-74.52 -17.58,-111.11 -6.3,-36.99 -12.66,-73.6 -19.06,-110.21 -4.69,-26.79 -12.84,-86.24 -21.24,-108.31 -21.62,35 -7.53,74.07 -0.78,114.63 6.91,41.47 13.91,82.06 20.95,124.14 3.46,20.7 19.48,109.75 16.16,124.63 -3.55,15.92 -26.1,26.62 -47.11,26.24 -11.52,-0.2 -19.47,-3.79 -24.73,-10.44 -5.5,-6.97 -5.22,-15.19 -6.91,-20.89 -3.13,-10.55 3.05,-0.27 -2.96,-6.93 -20.56,23.56 -21.98,49.15 -66.16,49.15 -36.68,0 -45.17,-31.14 -65.64,-51.69 -65.43,0.91 -78,162.94 -126.18,121.96 -16.06,-13.66 -21.12,-42.14 -19.79,-70.19 18.67,-7.59 34.05,-21.42 39.44,-44.75 6.26,-27.15 1.69,-50.47 -17.05,-64.1 -18.5,-13.46 -55.13,-25.77 -84.12,-45.06 -10.57,-7.04 -17.11,-13.27 -25.5,-18.58 10.9,-6.43 7.39,1.24 10.97,-7.86 -11.18,-9.01 -31.3,-22 -46.44,-26.05 -4.42,44.99 15.28,62.48 60.32,90.91 27.23,17.19 81.74,32.13 93.19,59.91 -9.4,16.02 -168.14,112.48 -203.26,107.58 -32.45,-4.53 -19.52,-58.86 -7.5,-76.39 1.18,15.6 -0.84,38.67 6.65,49.88 34.53,-74.83 -23.17,-276.58 -33.48,-365.34 12.22,6.39 8.92,9.98 22.38,16.91 -3.41,-17.93 -29.02,-73.12 -38.68,-85.74l-5.45 7.42c-15.95,29.23 -4.53,34.75 0.98,72.7 7.42,51 46.93,265.46 44.46,285.02 -0.01,0.04 -70.13,166.43 31.73,128.95 27.53,-10.13 47.86,-22.46 73.49,-36.67l67.68 -40.02z"/>
    <path class="fil1 str0" d="M1785.68 425.02c7.95,-3.53 11.19,-2.02 22.32,-0.77 8.1,0.91 14.59,0.99 20.72,4.53l-23.91 10.8 -19.13 -14.56zm-239.67 -35.03c-12.22,11.89 -33.48,74.06 -103.78,43.55 -26.46,-11.48 -15.17,-18.82 -24.82,-31.05 -10.14,9.28 -3.54,8.65 -17.55,13.17 -34.76,11.22 -24.26,1.89 -74.38,26.27 -25.89,12.6 -62.78,35.55 -66.32,66.98 20.18,5.52 35.89,11.59 59.82,16.1 23.59,4.44 44.44,9.3 53.2,24.73 -44.08,46.01 -223.9,118.78 -268.94,30.66 -21.65,-42.34 -0.34,-73.46 5.57,-110.7 -18.49,10.73 -25.85,45.29 -29.4,69.1 -14.44,96.81 58.27,141.78 162.45,109.44 41.9,-13 107.41,-44.62 129.94,-68.53 12.77,-13.55 30.89,-51.62 11.41,-68.22 -17.22,-14.68 -52.01,-18.46 -75.96,-24.9 15.68,-15.56 64.87,-33.04 94.29,-35.71 0.18,44.75 24.52,80.93 54.94,71.4 5.78,-14.49 4.58,-28.07 5.03,-44.99 12.6,-4.37 47.48,3.62 71.63,-44.83 3.04,3.82 0.7,0.18 4.02,6.65 1.83,3.57 2.23,5.4 4.1,8.98 20.41,38.91 87.93,36.36 94.75,0.67 7.64,36.87 20.14,71.59 62.42,65.32 42.43,-6.3 66.37,-28.48 97.67,-38.24 23.64,20.23 66.93,66.59 120.85,20.36 10.65,-9.13 19.96,-25.06 29.66,-30.88 8.58,16.24 6.05,30.6 29.27,34.3 50.65,8.09 82.26,-47.65 76.61,-111.26 -4.7,-52.88 -35.26,-198.25 -34.66,-219.74 3.37,6.78 11.58,14.19 21.24,17.39l-32.06 -76.4c-3.71,-6.3 -3.02,-5.26 -6.85,-9.3 -12.8,16.08 -14.42,29.03 -9.77,44.5 4.75,15.81 7.01,42.05 9.7,59.53 5.77,37.42 40.78,218.77 32.31,240.39 -6.94,17.7 -63.68,37.35 -72.09,-4.63 -0.72,-3.59 -0.41,-4.3 -1.43,-7.97 -1.97,-7.07 0.24,-2.88 -2.81,-6.89 -14.48,8.25 -52.02,80.42 -115.31,45.9 -7.9,-4.31 -10.72,-6.74 -15.04,-11.48 0.64,-0.55 1.64,-2.17 1.97,-1.57l3.98 -2.94c0.55,-0.35 1.42,-0.93 2.04,-1.31 26.06,-15.9 49.61,-6.3 48.96,-46.77 -42.48,-14.94 -111.83,-25.39 -155.71,-9.59 -19.15,6.9 -18.45,17.33 -24.56,36.08 39.94,0.65 45.74,-3.83 70.35,22.53 -32.24,13.65 -89.11,44.5 -110.42,1.3 -21.43,-43.43 -52.31,-344.98 -73.89,-387.45 -19.77,44.94 -7.13,72.09 0.9,120.15 5.8,34.68 43.45,229.6 34.35,248.77 -8.34,17.54 -56,4.29 -72.26,-23.37 -8.61,-14.65 0.56,-16.94 -5.42,-25.5z"/>
    <path class="fil1 str0" d="M2422.49 479.05c-13.36,1.62 -23.31,4.12 -34.32,-3.64 0.36,-9.13 7.76,-12.28 18.1,-10.1 8.91,1.87 12.97,8.22 16.22,13.74zm37.5 17.98c10.29,-4.53 21.15,-9.57 27.11,-19.37l7.4 13.9c17.78,44.66 68.4,23.09 82.39,6.18 59.43,-71.78 -17.36,-266.06 -18.2,-355.15 4,5.04 13.52,13.64 20.79,17.26 -2.2,-16.89 -29.36,-76.17 -37.24,-87.04 -21.67,20.09 -11.41,44.59 -9.69,52.76l32.01 195.38c4.08,24.91 20.02,111.94 17.77,132.1 -2.1,18.88 -24.27,30.82 -46.58,29.19 -33.34,-2.44 -27.54,-30.54 -34.73,-39.25 -16.45,9.36 -28.5,18.72 -47.25,24.89 -12.62,-13.79 -15.48,-30.19 -38.91,-35.97 -39.3,-9.68 -71.22,66.9 -32.24,80.08 25.92,8.76 39.62,-2.96 58.54,-3.44l4.58 0.61c6.84,19.66 -9.47,34.26 -30.59,50.49 -39.63,30.46 -130.3,95.39 -163.75,20.4 -10.53,-23.61 -10.9,-47.86 11.54,-62.29 111.24,-71.57 34.84,-124.74 31.42,-163.79 1.87,0.81 2.5,1.74 7.23,2.4l5.44 -0.26c0.21,-0.61 1.22,-0.15 1.76,-0.4 -6.52,-11.86 -27.7,-37.52 -38.01,-41.37 -16.03,74.38 29.09,82.22 37.82,136.41 -87.87,84.22 -299.52,143.28 -321.75,163.99 22.96,-0.45 122.96,-16.48 141.74,-23.48 49.26,-18.37 82.12,-44.67 108.42,-55.39 -2.55,43.09 -9.46,71.57 19.79,98.74 25.92,24.07 62.34,17.34 93.63,2.03 26.78,-13.1 54.91,-36.23 72.44,-53.52 23.51,-23.2 35.09,-39.44 37.12,-86.09z"/>
    <path class="fil1 str0" d="M4489.77 448.13l13.12 -35.5c-80.28,1.56 -125.13,-6.88 -198.94,-20.53 16.39,-11.41 31.26,-30.14 42.72,-49.28 10.04,-16.78 23.85,-51.73 44.35,-52.53 20.14,17.21 4.39,32.62 15.65,45.74 17.75,-23.4 8.43,-61.82 -4.92,-81.23 -49.11,3.8 -28.41,81.15 -129.12,124.2 -25.39,10.85 -33.64,16.42 -39.26,46.28 40.43,-0.24 99.01,4.3 135.71,15.03 -18.17,16.49 -98.16,46.34 -128.98,31.6 -38.09,-18.23 -42.66,-71.73 -48.42,-121.67 -7.14,-61.8 -24.11,-243.93 -55.81,-280.18 -20.32,28.06 -2.31,54.01 5.42,85.05 7.31,29.36 12.78,62.69 17.1,93.08 11.5,80.91 7.15,232.82 71.75,258.92 66.92,27.04 155.86,-67.19 259.63,-58.98z"/>
    <path class="fil1 str0" d="M3989.2 316.52l11.2 -8.27c-15.61,-7.45 -26.85,-20.72 -48.04,-25.83 -0.68,44 -3.48,33.39 19.9,57.31 58.5,59.83 104.61,50.57 134.41,91.39 -7.56,20.71 -163.96,105.88 -192.19,109.74 -38.66,5.3 -35.16,-33.5 -25.51,-61.77l4.12 23.74c39.1,-43.17 -23.67,-299.54 -31.29,-365.08 11.32,6.85 8.69,10.62 22.28,16.96 -6.74,-32.38 -29.27,-60.99 -36.55,-87.15 -22.75,17.73 -12.78,44.27 -10.59,54.79 4.44,21.39 6.8,46.33 10.34,68.5 6.92,43.38 15.36,88.2 22.17,131.5 3.95,25.06 20.87,118.13 17.51,136.78 -4.85,26.93 -41.94,103.85 1.72,118.58 37.48,12.64 181.03,-82.21 205.25,-100.09 23.16,-17.1 43.8,-74.61 -5.32,-103.03 -36.24,-20.96 -70.98,-31.88 -99.41,-58.07z"/>
    <path class="fil1 str0" d="M2845.63 447.06c-13.97,24.73 -113.21,78.41 -149.27,94.53l-165.62 68.16c-4.99,3.34 -3.13,2 -6.29,5.27 29.18,-1.6 108.85,-13.95 135.55,-21.56 44.3,-12.62 169.29,-83.22 188.08,-120.66 24.02,-47.88 2.09,-76.09 -16.21,-113.94l14.96 -3.67c-11.52,-12.66 -25.07,-33.2 -37.11,-39.75 -24.16,41.26 24.65,95.93 35.91,131.62z"/>
    <path class="fil1 str0" d="M2699.24 513.11c41.67,-40.46 -24.74,-296.66 -30.97,-365.35 10.43,7.36 8.23,11.1 22.05,17.14 -5.95,-29.54 -26.58,-61.61 -36.85,-87.01 -8.13,6.26 -19.03,26.31 -13.32,43.89l45.81 276.24c5.64,36.53 7.23,81.4 13.28,115.09z"/>
    <path class="fil1 str0" d="M4577.51 502.85c39.73,-40.72 -25.53,-300.6 -31.97,-365.27 11.54,6.73 8.87,10.49 22.35,17.07 -4.29,-21.36 -26.98,-67.91 -38.27,-85.72l-3.07 3.3c-1.95,2.77 -1.37,1.3 -3.7,5.82 -12.28,23.86 -7.82,24.79 -4.95,33.93 5.27,16.73 6.64,35.78 9.35,53.87l36.17 222.44c4.17,27.34 8.42,96.16 14.09,114.56z"/>
    <path class="fil1 str0" d="M1120.73 186.32c-13.85,-17.09 -32.2,-63.89 -68.72,-60.33 -18.11,28.94 16.45,45.99 27.38,45.11 11.8,-0.96 -4.95,-1.19 8.96,-2.93 10.8,12.95 20.58,26.62 27.81,45.79 -36.23,34.87 -6.14,25.8 -25.35,54.37 -13.81,20.51 -5.47,49.96 -0.32,73.91 10.52,48.96 23.32,97.39 30.22,146.75 0.58,-0.75 1.25,-2.93 1.42,-2.48 0.18,0.45 1.07,-1.84 1.27,-2.56 1.61,-5.58 4.09,2.34 0.54,-20.56 -5.99,-38.57 -33.21,-158.63 -32.74,-175.77 24.66,-20.39 36.77,-14.65 65.08,-24.9l4.02 -17.17c-16.77,-22.21 -22.7,-20.52 -33.6,-31.59l3.29 -66.59c3.71,-41.56 32.15,-11.45 35.94,-11.51l3.37 -20.58c-53.83,-38.38 -47.41,26.26 -48.57,71.04z"/>
    <path class="fil1 str0" d="M2154.52 444.94c7.31,-7.84 8.8,-19.7 10.83,-31.02 2.68,-14.99 3.36,-27.34 2.32,-42.6 -4.81,-70.64 -23.62,-153.12 -33.77,-222.25 12.04,6.43 9.9,12.13 22.29,16.16 -2.1,-15.59 -30.47,-78.38 -39.76,-86.07 -5.67,9.61 -13.9,26.01 -11.58,39.09 2.57,14.5 5.89,29.65 8.36,45.46 4.87,31.19 9.86,61.59 15.23,92.13 4.18,23.71 23.98,184.82 26.08,189.1z"/>
    <path class="fil1 str0" d="M3113.54 199.92l229.77 -88.67c5.51,-3.79 17.79,-19.51 20.71,-27.46 -41.62,8.43 -98.35,31.13 -137.38,46.2 -38.29,14.78 -106.45,37.11 -113.1,69.93z"/>
    <path class="fil1 str0" d="M1693.51 218.14c20.14,-5.44 43.92,-18.55 64.07,-26.26l133.52 -49.19c29.21,-10.65 41.9,-14.02 52.98,-39.82 -42.96,9.54 -95.51,30.1 -135.51,45.48 -40.12,15.43 -101.82,34.19 -115.06,69.79z"/>
    <path class="fil1 str0" d="M1737.85 262.21c21.77,-1.55 57.69,-2.96 73.07,8.42l-64.86 30.45c13.61,9.45 53.94,-2.72 66.07,-10.57 4.1,-2.65 17.05,-15.42 20.83,-20.06 6.55,-8.05 12.47,-16.53 11.67,-30.46 -12.12,-10.57 -40.21,-15.57 -61.98,-15.72 -24.55,-0.18 -36.27,17.01 -44.8,37.94z"/>
    <path class="fil1 str0" d="M1946.28 576.54c-10.7,-1.66 -14.4,-1.81 -20.6,-10.68l11.48 -4.01c7.43,5.27 6.74,2.49 9.12,14.69zm-226.08 93.8c39.55,0.87 79.91,-15.95 111.6,-29.32 27.4,-11.57 64.02,-25.5 77.47,-48.52l5.84 -9.42c66.35,39.74 43.47,-40.55 22.05,-39.29 -21.92,9.45 -22.03,33.9 -40.59,48.51 -36.14,28.43 -151.1,60.82 -176.37,78.04z"/>
    <path class="fil1 str0" d="M4205.35 165.07c42.19,-15.89 97.56,-43.45 149.32,-63.07 28.11,-10.65 26.4,-9.9 39.27,-32.33 -42.44,11.24 -175.57,55.74 -188.59,95.4z"/>
    <path class="fil1 str0" d="M3201.45 254.09l151.76 -63.63c23.46,-8.56 27.46,-12.17 37.88,-31.78 -48.8,14.22 -168.39,52.81 -189.64,95.41z"/>
    <path class="fil1 str0" d="M2926.96 184.86l97.45 -42.86c17.51,-7.04 33.78,-13.91 51.8,-20.67 21.54,-8.08 32.3,-12.09 39.45,-32.35 -28.95,6.79 -75.68,25.77 -103.38,37.74 -32.97,14.25 -75.04,28.06 -85.32,58.14z"/>
    <path class="fil1 str0" d="M1575.79 678.98c30.94,-15.8 64.7,-29.89 99.12,-43.73 18.18,-7.31 34.6,-14.11 51.85,-20.62 23.21,-8.76 27.84,-11.37 37.57,-31.64 -33.73,8.76 -73.92,25.31 -105.95,38.84 -28.58,12.07 -77.72,30.79 -82.59,57.15z"/>
    <path class="fil1 str0" d="M1226.05 276.14c13.96,-5.95 17.41,-18.95 34.71,-9.65 33.37,32.75 -55.1,119.96 -63.02,142.11 22.74,-5.21 126.61,-143.91 77.92,-169.6 -22.68,-11.96 -48.35,18.66 -49.61,37.14z"/>
    <path class="fil1 str0" d="M1346.41 168.54c-17.73,-30 -28.21,-71.43 -63.18,-38.37 -8.1,7.66 -65.47,50.2 -75.28,53.74 34.81,-4.51 68.99,-33.64 84.62,-53.96 7.49,14.83 5.66,13.87 22.33,19.04 20.57,6.39 15.09,15.38 26.4,37.03l6.81 8.88c8.85,-13.77 7.85,-51.59 17.91,-72.68l21 10.59c6.81,-39.42 -21.64,-30.82 -27.6,-21.1 -6.66,10.88 -9.2,42.32 -13.01,56.83z"/>
    <path class="fil1 str0" d="M4154.55 605.84c-5.62,-21.64 -21.3,-46.52 -40.73,-51.98l-92.04 66.59c33.86,-6.4 65.38,-32.61 80.83,-52.35 16.57,24.65 19.85,11.47 33.44,23.84 13.04,11.87 9.95,29.74 21.87,40.51 10.44,-13.76 10.93,-54.91 18.09,-72.47 24.18,0.87 6.59,8.56 20.93,7.69 7.86,-23.37 -16.04,-37.13 -27.48,-17.75 -4.29,7.27 -5.94,18.95 -7.29,27.7l-4.05 20.75c-2.55,6.96 -1.47,4.17 -3.57,7.47z"/>
    <path class="fil1 str0" d="M1932.7 297.51l-36.78 -20.55 -15.04 31.91 37.53 21.59 11.58 -25.74c15.46,5.75 23.41,14.25 38.44,19.3l16.3 -31.1 -34.66 -20.12 -17.37 24.71z"/>
    <path class="fil1 str0" d="M3219.3 350.94l-36.73 -18.78c-5.9,8.04 -13.37,19.45 -16.89,29.85l34.28 21.29 15.33 -24.27 34.92 19.22 18.01 -30.42c-9.91,-7.35 -25.85,-16.91 -37.54,-21.1l-11.38 24.21z"/>
    <path class="fil1 str0" d="M2471.41 118.84c-29.42,0.12 -24.04,-30.83 -0.21,-18.34l0.21 18.34zm-10.62 19.52c-24.05,33.75 -110.34,71.12 -123.23,84.97 44.05,-7.24 117.29,-57.88 127.5,-83.51l23.57 5.4 5.27 -13.09c-6.69,-6.36 -7.04,-5.19 -16.61,-7.4 2.68,-18.54 5.81,-28.59 -2.94,-44.75 -16.45,-4.43 -57.1,21.66 -18.84,53.66 6.16,5.15 2.16,1.52 5.28,4.72z"/>
    <path class="fil1 str0" d="M4385.07 185.36l-34.84 -19.1 -18.42 31.34 33.97 19.2 16.4 -24.04c12.74,5.42 23.93,15.51 37.78,19.24l14.3 -29.49c-6.11,-7.4 -26.78,-18.58 -36.4,-21.63l-12.79 24.48z"/>
    <path class="fil1 str0" d="M1528.98 594.73l-35.46 -19.37 -17.42 28.77 36.83 22.24 13.61 -24.49c14.09,5.8 21.57,13.91 35.77,18.43l17.95 -31.24 -37.23 -20.02 -14.05 25.68z"/>
    <path class="fil1 str0" d="M1383.45 618.68c-5.44,-3.62 -21.5,-7.12 -28.59,-7.1l-3.98 19.68 -27.25 -6.22 -2.06 4.37c-0.17,0.42 -0.4,1.05 -0.56,1.5l-3.29 18.63 27.64 6.29 4.9 -20.06 29.05 5.54 4.14 -22.63z"/>
    <path class="fil1 str0" d="M4356.43 554.51c17.43,-6.29 18.74,-6.84 39.14,-4.98 -4.94,8.58 -0.2,1.99 -6.83,8.5 -7.43,7.3 -42.04,31.96 -26.84,56.04 15.21,24.1 73.06,3.99 79.56,-18.25 -26.9,9.18 -42.41,19.91 -72.82,6.02 -1.33,-33.9 41.79,-24.7 41.55,-66.99 -27.51,-7.65 -46.19,-6.25 -53.76,19.66z"/>
    <path class="fil1 str0" d="M2781.07 159.27c-9.05,-10.77 -20.05,-55.11 -48.91,-48.09 -9.04,33.9 14.18,22.02 28.86,34.91 10.54,9.27 10.8,33.86 23.37,42.25 6.92,-23.4 5.71,-59.41 19.21,-74.26 14.82,3.51 5.5,4.15 18.94,10.06 1.7,-13.49 4.92,-17.85 -5.49,-24.86 -30.18,-20.34 -30.68,45.95 -35.98,59.99z"/>
    <path class="fil1 str0" d="M4268.26 280.54c-14.26,-16.44 -19.12,-54.91 -49.22,-49.57l-2.97 21.8c45.87,23.43 21.49,-9.64 50.76,55.8 17.19,-15.63 3.09,-53.86 23.39,-73.54 14.35,3.75 6.45,6.1 17.41,8.95l2.51 -20.15c-33.57,-17.89 -32.9,2.31 -41.88,56.71z"/>
    <path class="fil1 str0" d="M3589.04 166.15c9.37,-0.72 53.47,-24.47 65.55,-30.41 26.81,-13.19 47.19,-16.36 57.92,-45.72 -37.97,9.34 -108.27,41.89 -123.47,76.13z"/>
    <path class="fil1 str0" d="M3779.92 615.81c-7.35,-10.38 -9.52,-20.81 -17.61,-31.44 -2.74,-3.6 -10.06,-11.84 -12.12,-13.34 -10.98,-8.03 -13.63,-3.67 -13.67,-3.67l-5.25 1.47c-9.61,29.15 15.02,22.9 28.18,34.23 12.96,11.15 11.34,31.2 23.71,41.77 10.12,-25.02 3.08,-51.9 19.31,-74 11.22,1.87 10.6,4.79 17.24,10.51 11.27,-28.73 -15.8,-35.87 -25.08,-22.15 -10.2,15.07 -6.66,42.96 -14.71,56.62z"/>
    <path class="fil1 str0" d="M4017.94 111.61c-10.48,-6.59 -15.34,-2.47 -16.51,-16.7 3.54,-4.97 10.12,-4.29 17.82,-3.5 1.91,7.44 1.58,13.73 -1.31,20.2zm-6.19 15.06c-23.6,29.05 -50.02,32.65 -63.83,48.44 27.18,-1.02 64.39,-28.6 71.31,-43.77l17.43 6.1c4.68,-19.89 -1.41,-13.75 -7.6,-24.28 3.95,-12.99 3.66,-26.01 -0.72,-37.31 -18.39,-3.82 -28.49,7.7 -33.95,19 -10.74,22.21 2.48,23.2 17.36,31.82z"/>
    <path class="fil1 str0" d="M2289.97 149.64c-6.58,-8.61 -15.49,-33.94 -29.89,-44.63 -10.93,-8.12 -13.45,-3.89 -13.6,-3.88l-5.26 1.3c-9.76,29.87 14.92,23.07 28.43,34.22 12.21,10.1 10.79,31.94 23.58,42.1 9.17,-25.15 3.7,-53.86 19.27,-74.1 11.05,2.05 10.31,5.17 17.21,10.45l3.7 -22.15 -20.91 -8c-23.08,21.54 -11.71,44.85 -22.53,64.69z"/>
    <path class="fil1 str0" d="M1417.97 352.42c-9.74,-10.39 -14.74,-27 -22.96,-37.3 -11.72,-14.69 -30.13,-24.68 -28.38,10.28 10.21,6.54 26.07,8.42 32.6,16.74 15.7,20.03 5.37,30.89 22.26,39.68 3.86,-20.89 2.97,-58.63 17.97,-73.32 11.7,1.84 8.14,4.51 18.41,9.3 4.59,-20.1 0.03,-28.85 -22.23,-28.27 -12.81,19.99 -11.27,36.71 -17.67,62.89z"/>
    <path class="fil1 str0" d="M2708.16 639.32c34.52,-12.78 78.91,-35.21 120.39,-50.56 19.6,-7.26 24.27,-7.51 31.78,-25.96 -25.43,5.82 -60.16,20.35 -84,30.42 -28.36,11.98 -58.42,22.36 -68.17,46.1z"/>
    <path class="fil1 str0" d="M3041.48 540.63c-9.1,42.71 -7.62,21.8 1.84,42.55l-80.15 52.94c34.65,-7.09 70.89,-38.64 89.1,-53.45 44.16,12.29 18.17,-36.44 -2.11,-42.29 -0.61,-0.17 -1.58,-0.42 -2.17,-0.51 -0.57,-0.09 -1.64,-0.05 -2.16,-0.08 -0.52,-0.02 -1.72,0.3 -2.14,0.32 -0.45,0.01 -1.48,0.31 -2.21,0.52z"/>
    <path class="fil1 str0" d="M4499.3 560.46c-8.79,11.3 -9.1,7.12 -11.32,22.49 8.51,-4.08 0.07,0.5 8.66,-5.04 39.32,-25.37 48.77,-12.45 52.46,-38.72 -16.58,5.3 -43.87,22.52 -47.32,-7.78 17.61,-11.81 14.95,2.31 30.67,3.59 5.66,-22.28 -5.4,-31.07 -28.71,-19.34 -17.6,8.86 -13.32,30.46 -4.44,44.8z"/>
    <path class="fil1 str0" d="M3122.13 636.49l72.45 -31.33c36.23,-14.73 55.11,-15.57 65.48,-37.96 -33.78,8.28 -124.45,39.24 -137.93,69.29z"/>
    <path class="fil1 str0" d="M4474.19 116.38c-13.75,-2.06 -6.06,3.09 -13.82,-12.77 -3.62,-7.39 0.26,-2.02 -4.13,-7.3 -2.27,10.07 -2.38,23.21 -11.03,27.38 -16.22,7.84 -13.16,-13.28 -12.3,-24.44 -0.69,0.62 -1.69,0.65 -1.98,1.94 -0.28,1.26 -1.49,1.46 -1.86,1.97 -2.37,3.34 -0.81,-1.07 -4,6.34 -3.78,8.82 -6.82,32.18 10.6,34.85 14.76,2.26 13.92,-5.64 22.32,-7.64 12.09,-2.87 37.72,13.79 25.09,-47.34 -0.69,0.81 -1.44,1.07 -1.68,2.72 -0.23,1.61 -1.2,1.95 -1.48,2.74 -2.01,5.66 -0.92,1.91 -2.32,8.49 -1.98,9.27 2.38,2.51 -3.41,13.06z"/>
    <path class="fil1 str0" d="M2069.67 662.44c31.19,-11.36 64.11,-28.65 100.89,-41.86 17.27,-6.21 16.94,-6.46 24.16,-21.19 -29.26,9.64 -115.41,34.45 -125.05,63.05z"/>
    <path class="fil1 str0" d="M2455.18 334.43l36.42 18.7 16.8 -32.34 -35.54 -19.29c-7.75,7.65 -14.28,19.99 -17.68,32.93z"/>
    <path class="fil1 str0" d="M3327.12 582.41c15.74,6.06 24.19,14.85 38.41,19.19l16.52 -32.06 -36.34 -19.01 -18.59 31.88z"/>
    <path class="fil1 str0" d="M4503.19 620.48c15.03,-4.56 34.68,-16.12 50.16,-23.83 23.92,-11.91 32.12,-10.38 41.54,-32.79 -13.81,2.33 -62.32,24.96 -74.59,34.59 -8.91,6.99 -13.46,11.87 -17.11,22.03z"/>
    <path class="fil1 str0" d="M1362.03 691.49c9.81,-0.71 37.53,-17.64 49.52,-23.38 21.93,-10.5 32.26,-9.61 41.91,-32.8 -29.76,6.83 -77.17,30.64 -91.43,56.18z"/>
    <path class="fil1 str0" d="M4448.74 389.21c14.04,-5.08 33.78,-17.48 48.69,-24.61 20.16,-9.64 35.33,-11.26 41.58,-33.09 -18.58,5.35 -86.57,33.17 -90.27,57.7z"/>
    <path class="fil1 str0" d="M1646.85 194.85c20.18,0.24 21.34,-8.71 22,-28.32 -9.95,7.5 -2.64,10.74 -17.41,11.72 -15.27,-27.31 10.53,-67.09 3.26,-82.96 -14.59,22.37 -21.96,75.89 -7.85,99.56z"/>
    <path class="fil1 str0" d="M1187.46 579.6c15.15,-4.27 15.18,-10.22 16.23,-29.56 -0.65,0.6 -1.6,0.67 -1.87,1.87 -0.27,1.16 -1.4,1.44 -1.77,1.85 -3.13,3.55 -2.73,6.65 -12.99,9.2 -19.38,-24.76 11.74,-64.48 -0.06,-82.59 -6.87,24.31 -28.77,84.05 0.46,99.23z"/>
    <path class="fil1 str0" d="M1687.11 378.32l14.95 0.05c6.48,-9.03 7.48,-13.78 7.86,-28.61 -10.2,9.53 -0.91,11.57 -18.36,11.9 -9.98,-25.2 2.72,-56.26 6.95,-82.55 -4.17,3.37 -3.2,-1.13 -7.85,9.76l-8.93 38.29c-4.99,25.54 -2.39,31.5 5.38,51.16z"/>
    <path class="fil1 str0" d="M3483.82 642.2c18.62,0.61 19.85,-8.9 20.41,-26.77 -10.77,3.75 0.11,7.72 -18.01,11.04 -13.15,-27.36 5.45,-56.71 5.84,-83.71 -14.32,16.65 -27.71,79.81 -8.24,99.44z"/>
    <path class="fil1 str0" d="M2473.65 637.78c16.13,-1.63 19.9,-10.67 17.65,-29.02 -7.24,7.93 -3.43,9.71 -15.48,11.5 -16.69,-21.38 5.91,-62.05 4.21,-82.91 -1.87,3.35 -6.85,9.44 -9.13,18.33 -7.05,27.4 -17.26,64.9 2.75,82.1z"/>
    <path class="fil1 str0" d="M3643.95 346.21l13.59 0.2c7.54,-9.02 8.14,-13.14 8.79,-28.81 -8.67,8.12 -3.47,9.61 -15.56,12.42 -12.74,-13.96 -5.54,-41.6 -0.23,-62.96 3.97,-15.96 3.52,-13.43 -0.43,-19.84 -9.55,31.94 -22.43,67.52 -6.16,98.99z"/>
    <path class="fil1 str0" d="M3041.31 258.46c19.03,-0.49 26.8,-14.53 20.41,-27.66 -6.63,8.15 -4.31,9.63 -15.88,11.08 -13.64,-27.69 5.92,-57.72 5.49,-83.55 -10.05,8.66 -27.09,65.8 -10.02,100.13z"/>
    <path class="fil1 str0" d="M2125.01 454.56c-7.83,10.65 -1.1,8.81 -14.59,12.41 -17.27,-19.18 1.54,-60.27 3.77,-82.29 -11.14,8.1 -19.37,53.86 -18.47,71.63 2.26,44.52 34.13,31.46 29.29,-1.75z"/>
    <path class="fil1 str0" d="M1483.56 197.52c19.02,-0.11 18.61,-8.52 19.65,-28.62l-6.79 7.65c-5.14,4.92 -1.66,3.23 -9.61,5.05 -14.87,-19.57 0.86,-59.13 5.06,-83.19 -13.87,7.78 -29,81.8 -8.31,99.11z"/>
    <path class="fil1 str0" d="M3332.05 345.95c18.71,-0.43 20.58,-9.42 21.64,-27.86 -9.77,5.75 -3.83,9.4 -17,11.29 -14.42,-22.31 3,-58.54 5.12,-83.52 -17.75,17.4 -23.53,76.42 -9.76,100.09z"/>
    <path class="fil1 str0" d="M1162.26 343.72c-11.32,-5.73 -2.43,0.82 -9.45,-12.43 -8.2,11.9 1.03,14.8 -15.75,18.63 -7.27,-11.64 -1.04,-7.31 -5.22,-18.32 -8.45,17.73 -8.29,22.19 0.15,29.51 9.34,7.79 8.2,2.65 16.69,0.02 0.09,-0.03 43.13,-2.95 19.88,-35.76 -3.84,9.22 1.98,7.68 -6.3,18.35z"/>
    <path class="fil1 str0" d="M2359.27 351.76c18.47,1.16 18.88,-10.01 19.74,-28.35l-13.44 12.4c-22.13,-11.68 -0.63,-65.72 2.17,-83.23 -14.41,9.09 -28.46,81.42 -8.47,99.18z"/>
    <path class="fil1 str0" d="M1920.51 206.39c-9.42,-3.77 -5.67,-6.63 -11.31,-14.55 -2.6,14.47 0.33,15.99 -12.99,20.69 -3.2,-4.42 -5.65,-3.11 -4.4,-18.6 -8.82,10.54 -10.64,19.61 -2.96,30.64 15.56,5.91 10.4,0.18 21.36,-2.66 0.02,0 35.03,4.42 17.11,-35.53 -5.86,11.4 2.74,8.36 -6.81,20.01z"/>
    <path class="fil1 str0" d="M3641.32 642.76c18.15,-0.77 18.8,-10.77 19.17,-28.91 -10.15,9.89 -1.53,10.41 -16.02,12.17 -15.54,-17.07 0.89,-60.91 4.43,-81.82l-7.98 9.86c-5.51,13.18 -19.56,70.02 0.4,88.7z"/>
    <path class="fil1 str0" d="M2472.67 239.91c-7.47,-2.36 -2.24,2.98 -9.91,-9.45l-2.36 -4.15c-2.39,14.32 0.36,16.09 -12.93,20.65 -2.82,-3.85 -2.31,-1.26 -4.07,-7.88 -0.56,-2.08 -0.73,-7.98 -0.93,-10.68 -1.92,4.04 -13.81,21.35 -1.99,30.54 13.41,5.56 9.03,1.19 18.59,-1.63l15.53 -3.26c12.9,-5.27 8.5,-23.22 4.27,-33.17 -5.59,9.91 1.2,6.89 -6.2,19.03z"/>
    <path class="fil1 str0" d="M3657.78 217.35c-15.67,-3 -4.04,0.13 -13.31,-12.25 -6.29,13.23 0.17,16.73 -15.75,18.1l-4.13 -17.32c-7.37,14.07 -7.16,17.23 -3.31,31.16 11.29,1.95 39.08,-6.16 39.53,-6.52l5.32 -13.49c0.53,-7.99 -1.12,-11.5 -3.15,-18.8 -0.46,0.66 -1.05,0.93 -1.18,2.1 -0.13,1.18 -0.9,1.66 -1.06,2.19 -0.16,0.54 -0.62,1.69 -0.81,2.37 -0.18,0.71 -0.38,1.75 -0.56,2.54 -0.72,3.12 -0.66,6.27 -1.59,9.92z"/>
    <path class="fil1 str0" d="M4058.07 278.61c14.93,-2.52 17.64,-13.61 17.7,-29.75 -12.12,11.43 2.12,9.18 -15.5,12.47 -16.75,-18.67 0.73,-58.58 4.1,-82.47l-11.09 21.92c-2.19,9.52 -4.16,18.68 -5.98,28.51 -3.62,19.63 -3.31,40.87 10.77,49.32z"/>
    <path class="fil1 str0" d="M1925.68 565.86c6.2,8.87 9.9,9.02 20.6,10.68 -2.38,-12.2 -1.69,-9.42 -9.12,-14.69l-11.48 4.01z"/>
   </g>
   <polygon class="fil2" points="1142.99,894.33 1142.99,746.37 1092.66,746.37 1092.66,714.16 1227.29,714.16 1227.29,746.37 1176.96,746.37 1176.96,894.33 "/>
   <polygon id="1" class="fil2" points="1251.45,714.16 1285.42,714.16 1285.42,786.12 1361.16,786.12 1361.16,714.16 1395.13,714.16 1395.13,894.33 1361.16,894.33 1361.16,818.33 1285.42,818.33 1285.42,894.33 1251.45,894.33 "/>
   <path id="2" class="fil2" d="M1483.96 714.16l38.75 0 67.69 180.17 -37.49 0 -14.85 -43.03 -69.45 0 -14.85 43.03 -37.49 0 67.69 -180.17zm43.03 105.94l-16.1 -45.05 -6.55 -21.89 -2.01 0 -6.54 21.89 -16.11 45.05 47.31 0z"/>
   <polygon id="3" class="fil2" points="1611.54,714.16 1651.05,714.16 1723.52,834.94 1725.53,834.94 1723.52,800.22 1723.52,714.16 1757.24,714.16 1757.24,894.33 1721.5,894.33 1645.01,766.75 1642.99,766.75 1645.01,801.47 1645.01,894.33 1611.54,894.33 "/>
   <polygon id="4" class="fil2" points="1774.6,714.16 1811.34,714.16 1848.58,822.61 1855.12,845.76 1857.14,845.76 1864.18,822.61 1902.94,714.16 1939.68,714.16 1874,894.33 1838.26,894.33 "/>
   <polygon id="5" class="fil2" points="1994.79,746.37 1994.79,788.14 2067.01,788.14 2067.01,820.35 1994.79,820.35 1994.79,862.12 2075.06,862.12 2075.06,894.33 1960.82,894.33 1960.82,714.16 2075.06,714.16 2075.06,746.37 "/>
   <polygon id="6" class="fil2" points="2140.24,746.37 2140.24,788.14 2212.46,788.14 2212.46,820.35 2140.24,820.35 2140.24,862.12 2220.51,862.12 2220.51,894.33 2106.27,894.33 2106.27,714.16 2220.51,714.16 2220.51,746.37 "/>
   <path id="7" class="fil2" d="M2251.72 714.16l65.68 0c9.06,0 17.28,1.42 24.66,4.27 7.38,2.86 13.71,6.8 19,11.83 5.28,5.03 9.35,11.03 12.2,17.99 2.85,6.97 4.28,14.56 4.28,22.78 0,6.04 -1.01,11.7 -3.02,16.98 -2.01,5.29 -4.78,10.07 -8.31,14.35 -3.52,4.27 -7.63,8.05 -12.33,11.32 -4.69,3.27 -9.64,5.83 -14.84,7.67l-0.25 1.77 48.31 69.2 0 2.01 -39 0 -46.56 -67.69 -15.85 0 0 67.69 -33.97 0 0 -180.17zm65.42 81.28c7.72,0 14.05,-2.35 19,-7.05 4.95,-4.7 7.43,-10.65 7.43,-17.87 0,-3.18 -0.55,-6.29 -1.64,-9.31 -1.09,-3.02 -2.73,-5.7 -4.91,-8.05 -2.18,-2.35 -4.9,-4.24 -8.17,-5.66 -3.28,-1.43 -7.01,-2.14 -11.2,-2.14l-31.96 0 0 50.08 31.45 0z"/>
   <path id="8" class="fil2" d="M2510.66 898.36c-7.72,0 -15.1,-1.09 -22.15,-3.28 -7.04,-2.18 -13.5,-5.45 -19.37,-9.81 -5.87,-4.36 -10.99,-9.69 -15.35,-15.98 -4.37,-6.29 -7.8,-13.63 -10.32,-22.02l31.96 -12.58c2.35,9.06 6.46,16.57 12.33,22.52 5.87,5.96 13.59,8.94 23.15,8.94 3.52,0 6.92,-0.47 10.19,-1.39 3.27,-0.92 6.21,-2.26 8.81,-4.02 2.6,-1.77 4.65,-3.99 6.16,-6.67 1.51,-2.69 2.27,-5.79 2.27,-9.31 0,-3.36 -0.59,-6.38 -1.76,-9.06 -1.18,-2.69 -3.15,-5.2 -5.92,-7.55 -2.77,-2.35 -6.37,-4.61 -10.82,-6.8 -4.44,-2.18 -9.94,-4.44 -16.48,-6.79l-11.07 -4.03c-4.87,-1.67 -9.77,-3.94 -14.72,-6.79 -4.95,-2.85 -9.44,-6.29 -13.47,-10.32 -4.02,-4.02 -7.34,-8.76 -9.94,-14.22 -2.6,-5.45 -3.9,-11.61 -3.9,-18.49 0,-7.05 1.39,-13.63 4.16,-19.75 2.76,-6.13 6.71,-11.5 11.82,-16.11 5.12,-4.61 11.24,-8.22 18.37,-10.82 7.13,-2.6 15.06,-3.9 23.78,-3.9 9.06,0 16.9,1.22 23.53,3.65 6.63,2.43 12.25,5.53 16.86,9.31 4.61,3.77 8.35,7.93 11.2,12.46 2.85,4.52 4.95,8.8 6.29,12.83l-29.95 12.58c-1.67,-5.03 -4.73,-9.56 -9.18,-13.59 -4.45,-4.02 -10.53,-6.04 -18.24,-6.04 -7.39,0 -13.51,1.72 -18.37,5.16 -4.87,3.44 -7.3,7.93 -7.3,13.46 0,5.37 2.35,9.94 7.04,13.72 4.7,3.77 12.17,7.42 22.4,10.94l11.32 3.78c7.22,2.52 13.8,5.41 19.76,8.68 5.95,3.27 11.07,7.17 15.35,11.7 4.28,4.53 7.55,9.69 9.81,15.48 2.27,5.79 3.4,12.45 3.4,20 0,9.4 -1.89,17.49 -5.66,24.29 -3.78,6.79 -8.6,12.37 -14.47,16.73 -5.87,4.36 -12.5,7.63 -19.88,9.81 -7.38,2.19 -14.6,3.28 -21.64,3.28z"/>
   <polygon id="9" class="fil2" points="2635.98,894.33 2635.98,746.37 2585.65,746.37 2585.65,714.16 2720.28,714.16 2720.28,746.37 2669.95,746.37 2669.95,894.33 "/>
   <path id="10" class="fil2" d="M2810.37 898.36c-10.57,0 -20.18,-1.72 -28.82,-5.16 -8.63,-3.44 -15.97,-8.43 -22.01,-14.97 -6.04,-6.55 -10.74,-14.47 -14.1,-23.78 -3.35,-9.32 -5.03,-19.93 -5.03,-31.84l0 -108.45 33.97 0 0 110.47c0,6.04 0.76,11.57 2.27,16.6 1.51,5.04 3.77,9.4 6.79,13.09 3.02,3.69 6.8,6.58 11.33,8.68 4.53,2.1 9.73,3.15 15.6,3.15 6.04,0 11.32,-1.05 15.85,-3.15 4.53,-2.1 8.31,-4.99 11.32,-8.68 3.02,-3.69 5.29,-8.05 6.8,-13.09 1.51,-5.03 2.26,-10.56 2.26,-16.6l0 -110.47 33.98 0 0 108.45c0,11.24 -1.64,21.52 -4.91,30.83 -3.27,9.31 -7.97,17.28 -14.09,23.9 -6.13,6.63 -13.51,11.79 -22.15,15.48 -8.64,3.69 -18.33,5.54 -29.06,5.54z"/>
   <path id="11" class="fil2" d="M2912.79 714.16l60.89 0c14.26,0 27.1,2.18 38.51,6.54 11.4,4.36 21.13,10.53 29.19,18.49 8.05,7.97 14.21,17.49 18.49,28.57 4.28,11.07 6.42,23.23 6.42,36.48 0,13.42 -2.14,25.67 -6.42,36.74 -4.28,11.07 -10.44,20.55 -18.49,28.44 -8.06,7.88 -17.79,14.01 -29.19,18.37 -11.41,4.36 -24.25,6.54 -38.51,6.54l-60.89 0 0 -180.17zm59.39 147.96c9.89,0 18.62,-1.38 26.17,-4.15 7.54,-2.77 13.84,-6.67 18.87,-11.7 5.03,-5.04 8.81,-11.12 11.32,-18.25 2.52,-7.13 3.78,-15.05 3.78,-23.78 0,-8.72 -1.26,-16.65 -3.78,-23.78 -2.51,-7.13 -6.29,-13.21 -11.32,-18.24 -5.03,-5.03 -11.33,-8.93 -18.87,-11.7 -7.55,-2.77 -16.28,-4.15 -26.17,-4.15l-25.42 0 0 115.75 25.42 0z"/>
   <polygon id="12" class="fil2" points="3127.69,746.37 3127.69,788.14 3199.91,788.14 3199.91,820.35 3127.69,820.35 3127.69,862.12 3207.96,862.12 3207.96,894.33 3093.72,894.33 3093.72,714.16 3207.96,714.16 3207.96,746.37 "/>
   <polygon id="13" class="fil2" points="3239.17,714.16 3278.68,714.16 3351.15,834.94 3353.16,834.94 3351.15,800.22 3351.15,714.16 3384.87,714.16 3384.87,894.33 3349.13,894.33 3272.64,766.75 3270.62,766.75 3272.64,801.47 3272.64,894.33 3239.17,894.33 "/>
   <polygon id="14" class="fil2" points="3459.36,894.33 3459.36,746.37 3409.03,746.37 3409.03,714.16 3543.66,714.16 3543.66,746.37 3493.33,746.37 3493.33,894.33 "/>
   <path id="15" class="fil2" d="M3620.41 898.36c-7.72,0 -15.1,-1.09 -22.15,-3.28 -7.04,-2.18 -13.5,-5.45 -19.37,-9.81 -5.87,-4.36 -10.99,-9.69 -15.35,-15.98 -4.37,-6.29 -7.8,-13.63 -10.32,-22.02l31.96 -12.58c2.35,9.06 6.46,16.57 12.33,22.52 5.87,5.96 13.59,8.94 23.15,8.94 3.52,0 6.92,-0.47 10.19,-1.39 3.27,-0.92 6.21,-2.26 8.81,-4.02 2.6,-1.77 4.65,-3.99 6.16,-6.67 1.51,-2.69 2.27,-5.79 2.27,-9.31 0,-3.36 -0.59,-6.38 -1.76,-9.06 -1.18,-2.69 -3.15,-5.2 -5.92,-7.55 -2.77,-2.35 -6.37,-4.61 -10.82,-6.8 -4.44,-2.18 -9.94,-4.44 -16.48,-6.79l-11.07 -4.03c-4.87,-1.67 -9.77,-3.94 -14.72,-6.79 -4.95,-2.85 -9.44,-6.29 -13.47,-10.32 -4.02,-4.02 -7.34,-8.76 -9.94,-14.22 -2.6,-5.45 -3.9,-11.61 -3.9,-18.49 0,-7.05 1.39,-13.63 4.16,-19.75 2.76,-6.13 6.71,-11.5 11.82,-16.11 5.12,-4.61 11.24,-8.22 18.37,-10.82 7.13,-2.6 15.06,-3.9 23.78,-3.9 9.06,0 16.9,1.22 23.53,3.65 6.63,2.43 12.25,5.53 16.86,9.31 4.61,3.77 8.35,7.93 11.2,12.46 2.85,4.52 4.95,8.8 6.29,12.83l-29.95 12.58c-1.67,-5.03 -4.73,-9.56 -9.18,-13.59 -4.45,-4.02 -10.53,-6.04 -18.24,-6.04 -7.39,0 -13.51,1.72 -18.37,5.16 -4.87,3.44 -7.3,7.93 -7.3,13.46 0,5.37 2.35,9.94 7.04,13.72 4.7,3.77 12.17,7.42 22.4,10.94l11.32 3.78c7.22,2.52 13.8,5.41 19.76,8.68 5.95,3.27 11.07,7.17 15.35,11.7 4.28,4.53 7.55,9.69 9.81,15.48 2.27,5.79 3.4,12.45 3.4,20 0,9.4 -1.89,17.49 -5.66,24.29 -3.78,6.79 -8.6,12.37 -14.47,16.73 -5.87,4.36 -12.5,7.63 -19.88,9.81 -7.38,2.19 -14.6,3.28 -21.64,3.28z"/>
   <path id="16" class="fil2" d="M3704.45 803.99l12.84 -19.63c-3.7,-1.34 -6.84,-3.73 -9.44,-7.17 -2.6,-3.44 -3.9,-7.59 -3.9,-12.46 0,-6.04 2.14,-11.2 6.42,-15.47 4.27,-4.28 9.43,-6.42 15.47,-6.42 6.04,0 11.16,2.14 15.35,6.42 4.2,4.27 6.29,9.43 6.29,15.47 0,3.19 -0.54,6.04 -1.63,8.56 -1.09,2.51 -2.65,5.2 -4.66,8.05l-21.89 32.46 -14.85 -9.81z"/>
   <path id="17" class="fil2" d="M3893.94 898.36c-10.57,0 -20.18,-1.72 -28.82,-5.16 -8.63,-3.44 -15.97,-8.43 -22.01,-14.97 -6.04,-6.55 -10.74,-14.47 -14.1,-23.78 -3.35,-9.32 -5.03,-19.93 -5.03,-31.84l0 -108.45 33.97 0 0 110.47c0,6.04 0.76,11.57 2.27,16.6 1.51,5.04 3.77,9.4 6.79,13.09 3.02,3.69 6.8,6.58 11.33,8.68 4.53,2.1 9.73,3.15 15.6,3.15 6.04,0 11.32,-1.05 15.85,-3.15 4.53,-2.1 8.31,-4.99 11.32,-8.68 3.02,-3.69 5.29,-8.05 6.8,-13.09 1.51,-5.03 2.26,-10.56 2.26,-16.6l0 -110.47 33.98 0 0 108.45c0,11.24 -1.64,21.52 -4.91,30.83 -3.27,9.31 -7.97,17.28 -14.09,23.9 -6.13,6.63 -13.51,11.79 -22.15,15.48 -8.64,3.69 -18.33,5.54 -29.06,5.54z"/>
   <polygon id="18" class="fil2" points="3996.36,714.16 4035.87,714.16 4108.34,834.94 4110.35,834.94 4108.34,800.22 4108.34,714.16 4142.06,714.16 4142.06,894.33 4106.32,894.33 4029.83,766.75 4027.81,766.75 4029.83,801.47 4029.83,894.33 3996.36,894.33 "/>
   <polygon id="19" class="fil2" points="4178.3,714.16 4212.27,714.16 4212.27,894.33 4178.3,894.33 "/>
   <path id="20" class="fil2" d="M4331.29 898.36c-13.42,0 -25.87,-2.44 -37.36,-7.3 -11.5,-4.87 -21.44,-11.53 -29.82,-20.01 -8.39,-8.47 -14.98,-18.45 -19.76,-29.94 -4.78,-11.49 -7.17,-23.78 -7.17,-36.87 0,-13.08 2.39,-25.37 7.17,-36.86 4.78,-11.49 11.37,-21.48 19.76,-29.95 8.38,-8.47 18.32,-15.14 29.82,-20 11.49,-4.87 23.94,-7.3 37.36,-7.3 13.42,0 25.88,2.43 37.37,7.3 11.49,4.86 21.43,11.53 29.82,20 8.39,8.47 14.97,18.46 19.76,29.95 4.78,11.49 7.17,23.78 7.17,36.86 0,13.09 -2.39,25.38 -7.17,36.87 -4.79,11.49 -11.37,21.47 -19.76,29.94 -8.39,8.48 -18.33,15.14 -29.82,20.01 -11.49,4.86 -23.95,7.3 -37.37,7.3zm0 -32.21c8.39,0 16.23,-1.51 23.53,-4.53 7.3,-3.02 13.67,-7.22 19.13,-12.59 5.45,-5.36 9.73,-11.86 12.83,-19.5 3.1,-7.63 4.66,-16.06 4.66,-25.29 0,-9.22 -1.56,-17.65 -4.66,-25.29 -3.1,-7.63 -7.38,-14.13 -12.83,-19.5 -5.46,-5.37 -11.83,-9.56 -19.13,-12.58 -7.3,-3.02 -15.14,-4.53 -23.53,-4.53 -8.38,0 -16.23,1.51 -23.52,4.53 -7.3,3.02 -13.68,7.21 -19.13,12.58 -5.45,5.37 -9.73,11.87 -12.83,19.5 -3.11,7.64 -4.66,16.07 -4.66,25.29 0,9.23 1.55,17.66 4.66,25.29 3.1,7.64 7.38,14.14 12.83,19.5 5.45,5.37 11.83,9.57 19.13,12.59 7.29,3.02 15.14,4.53 23.52,4.53z"/>
   <polygon id="21" class="fil2" points="4452.84,714.16 4492.35,714.16 4564.82,834.94 4566.83,834.94 4564.82,800.22 4564.82,714.16 4598.54,714.16 4598.54,894.33 4562.8,894.33 4486.31,766.75 4484.29,766.75 4486.31,801.47 4486.31,894.33 4452.84,894.33 "/>
   <g>
    <path class="fil3" d="M250.26 632.02c0,0 -14.27,120.97 57.77,164.47 72.04,43.49 203.21,-86.99 203.21,-86.99 0,0 -80.2,-7.48 -29.22,-44.86 50.97,-37.38 81.55,-53.01 159.03,-38.06 0,0 49.27,13.93 51.99,37.04 0,0 -93.11,-3.4 -146.12,53.01 -53.01,56.41 -165.83,152.91 -247.38,109.42 -81.56,-43.5 -89.71,-170.08 -49.28,-194.03zm263.35 50.12l24.81 4.41c0,0 44.17,-36.7 55.39,-36.36 11.21,0.34 -25.49,-14.27 -80.2,31.95z"/>
    <path class="fil3" d="M743.8 375.78c0,0 48.94,-239.22 -206.6,-197.09 0,0 45.86,116.22 195.38,190.3 0,0 147.14,64.57 145.1,146.8 0,0 3.06,113.49 -157.33,126.41l-12.75 -1.53c0,0 90.72,-51.31 107.72,-68.64 0,0 44.85,-26.51 6.79,-91.08 0,0 -31.94,-49.61 -86.31,-70 0,0 -135.25,-74.07 -152.92,-106.7 1.72,13.75 -93.24,-109.8 -91.75,-144.75 0,0 89.03,-50.98 199.13,-4.76 0,0 87.67,40.78 88.35,161.75 0,0 -14.61,60.82 -34.81,59.29z"/>
    <path class="fil3" d="M768.04 423.55c0,0 -103.31,5.43 -84.28,175.34 0,0 24.47,99.9 14.28,154.95 0,0 -21.07,102.62 -134.57,40.78 0,0 -43.5,-37.38 -54.37,-72.72 0,0 -25.82,81.55 91.75,122.33 0,0 103.98,24.47 125.05,-73.4 17.14,-114.3 -61.84,-270.67 42.14,-347.28z"/>
    <path class="fil3" d="M433.63 790.36c68.4,-214.48 -437.33,-164.32 -257.74,-354.28 6.62,-0.96 49.28,-56.27 73.65,-57.85 13.23,-8.42 -78.28,-4.06 -131.74,70.79 2.24,-6.05 -56,76.69 25.73,144.07 110.56,66.81 243.22,63.41 290.1,197.27z"/>
    <path class="fil3" d="M242.81 326.41c0,0 96.84,-34.99 139.66,-68.3 42.81,-33.3 66.6,-86.31 66.6,-86.31 0,0 -176.7,-40.78 -212.04,103.3 0,0 -6.46,27.19 46.55,163.11 0,0 42.14,131.85 -59.81,153.6l-9.51 -2.72c-0.28,-0.08 70.68,-33.23 40.78,-137.29 0,0 -57.09,-116.89 -58.45,-156.31 0,0 -2.38,-217.48 292.57,-137.28 0,0 -36.36,110.1 -141.02,157.67 0,0 -65.92,39.08 -105.33,10.53z"/>
    <path class="fil3" d="M528.21 277.08c13.32,0 24.12,10.8 24.12,24.12 0,13.32 -10.8,24.12 -24.12,24.12 -13.33,0 -24.12,-10.8 -24.12,-24.12 0,-13.32 10.79,-24.12 24.12,-24.12z"/>
    <path class="fil3" d="M566.8 321.39c13.33,0 24.12,10.8 24.12,24.12 0,13.32 -10.79,24.12 -24.12,24.12 -13.32,0 -24.12,-10.8 -24.12,-24.12 0,-13.32 10.8,-24.12 24.12,-24.12z"/>
    <path class="fil3" d="M626.3 478.01c13.32,0 24.12,10.8 24.12,24.12 0,13.32 -10.8,24.12 -24.12,24.12 -13.32,0 -24.12,-10.8 -24.12,-24.12 0,-13.32 10.8,-24.12 24.12,-24.12z"/>
    <path class="fil3" d="M157.73 627.16c13.33,0 24.12,10.8 24.12,24.12 0,13.32 -10.79,24.12 -24.12,24.12 -13.32,0 -24.11,-10.8 -24.11,-24.12 0,-13.32 10.79,-24.12 24.11,-24.12z"/>
    <path class="fil3" d="M181.89 676.74c13.32,0 24.12,10.8 24.12,24.12 0,13.32 -10.8,24.12 -24.12,24.12 -13.32,0 -24.12,-10.8 -24.12,-24.12 0,-13.32 10.8,-24.12 24.12,-24.12z"/>
   </g>
  </g>
 </g>
</svg>
